<mxfile host="65bd71144e">
    <diagram id="CGcRuF0fwbob_DaKKfJW" name="Page-1">
        <mxGraphModel dx="1253" dy="938" grid="0" gridSize="10" guides="1" tooltips="1" connect="1" arrows="1" fold="1" page="0" pageScale="1" pageWidth="850" pageHeight="1100" math="0" shadow="0">
            <root>
                <mxCell id="0"/>
                <mxCell id="1" parent="0"/>
                <mxCell id="2" value="" style="shape=stencil(lVrZchw3DPyafWWBN/nsOP/hKsuRKorkkuUcfx8gWxwNmzs92Td53djlATQaAC/x04/HL98fLkF+vL+9/v7w19PX98dL/OUSwtPL48Pb07v+dYmfL/HTt9e3h9/eXn++fL3++/sXQ9pff7z+ad/w99VOXItmFOSf6wfNBfnvg1+v8OenlxleJ7j3LoVjvHdSZnwZnxzgg5/x3fXK8EkmfMhO6HpKmPBRV5gZvuUZX10j5xOczOeT+HqCCzM+BxcpPs3rz92lyPB5xhc9/87wZT7PGpwn96X42X1qdTlRfJrdTb+fr2c+/1bGCf9PfHeh3YHv3nW+fsAn5/09+Dwi6ADfZv/v1Xmy/ujCHF+90fhKw9t3+EzOP9/4/k7w1YXZ33ofEX07vgQJQg0iM4iupcWARIBvrq5LIiGvZ5QqGnhiEMX1ZQ9ClhTbjVvoZNNKInkxqMQtcnQ+oUEhfl3ElYoGiThSqa4LGgRiUBNSUW+Uepu4vMRCYwbZ1YoGhRxrl8FtO4NE2L1HVxYDYQbFhT4bFBfJHvT7ekPCSOTizHNmBlZGCiSD9I0QN4MwvOvIwIPzCeXUD0rZSLjSpKabhotrkbKSHiKolspj2lh33rS5I7u4PO51S5ycZiwPzJsuylQkHtSXwL1zo8yn1wQ3rVqhsSWpWJiXlDQ5syVpLp5/IYVBC7cNPJKxUltg3upRX0T1VraHReAp21Z20344wqYI65mBXyQkkyTq/X32Vs3ancWD4CmprPTslHSLs4Gq4MzuQVBmeE7GagAJxVeq89QgwZIKpxkZIb8ZZBf5KaH0TzRlGXvDL0RaK6gUhDztg6tk02oAakyrHRYPalDmiFN9U/gvZCBjmtcVn4CLaXmh+Ah62EVypqaW5yPS4CE0aXigSRoKioeMW6ifGn7+/jxY8wgvwGAjtdzGN3QJFchs/ZtO2+jIRcIVim+zjwaqqtoiVv2I7CN8nrlIaPli+Az4wtcP9Z0MBzxcfwM8y8t2Xx7wrDw1f8P9CveHXO7DN9wv84e+lC/C05lgfSS0fDcWFcDThCyoN9UfOEv7+b48LXVsvwL4Ez6pQLmjuDrkNyBQl8n5rPzjOT+0ER679XA8ZmKqbyxecD2Un2/EI+X/RVoLP5+FT4RqzLZUE0KVivEzxjurfO1+l3jk+QXOX3jN2Ed3Yrd+Hr8e+SRyGRRwv7RQuR+fMF5ombJd/0d+oVWKoN4ItJ1jwhLk95kmAyGaBoEdKl3M73KijDPgG6/wIR+Vs/MHfD3T0SDt25kqhjq08SJxqTX6WUEG+dSfOJzHVpRKXFpq+NHv3IloJiHMAFw6jtbRoQHkgHS2pDAHgZUazCs8RqUWM7T68SOq9uUSu2c/ap19QcYNoOloJR8vjEH5ha2QPTKAULPY54UxaCErjPkpQe/Kqge26aXfYMU9N4B7sPYB23TAU7IGBW+yNCgIthHHURsHFJ01WdgvLD3EHGiN0hO6dz5psiQsUkqkqqJnVAmlcxlbljFRonVQr6hzauctkIZCsEWqHG0KMO+h1bM+KFBx57WKl0X89pP2WMfsrFdDG3ANaUOvhrU09CLS0l+mBhEFufXITyqWpc9PJV5eRliN14AyJoY7g8RmTOmGAUtBNqsIaMBSUBHs41gTnAS1zVuWERDrkdtEZzFglWBsNwZlrG0fV+mg2oGNQtPiS53Oum2yFtGAjbFsdgdpVLj+94L9nN5P5o/QEzQ8+YG0jFs6bdgtTfuT2WBYrrnR+U8Y7Y9deDIB6hfP5vPlFc/n1yuez8cX/Mn83WOqOpnvr3j+fkA1zHyeJ+8TPKZ/e/9A11Nh6sPfV3gkFnu/QdeTl5kPnXajQEq8oFqGH/a+hWTN5f2PvZ8h57PUg1bgEf9fxww83pf62t4XEX8TfJ9j75fIeS4pn8tHwfKr0TJBxt18wNllCV5Wpbl+6W1Uys6ytv4Zk2yNkh2crj3dB0e9SOtkwWdFlbK+oN6tYwxwBMeinSkgQQHUKMXe/wKPw/WPj8d+356en69vBff/j48D9aPrw8L4+V8=);lineShape=1;" vertex="1" parent="1">
                    <mxGeometry x="269.3850824287654" y="111.10138202044345" width="342.1000359116638" height="391.3684666540321" as="geometry"/>
                </mxCell>
                <mxCell id="3" value="" style="shape=stencil(lZnZUhsxEEW/xq9d2pdnQv6DKiC4QjBlyPb3acWlAXV7rmbejOnjkXrTbc3B37w93b0+HJx5ez+fvj/8Pt6/Px38l4Nzx5enh/PxnT8d/O3B3zyezg/fzqefL/eXv1/vmmX79OP0q/3CnwtnyJcGOfP38kX25NL/b75e7J+PL5/sHVk72KdEBdh7ynG0t+Tdun2gOq4nZrJx3T5RHH8/egrAvpCrg32ocP3WkPMjkMgVADjyZgTYBwEAgaIbAUsJAYvHF4AXCfZsaw9pB3yFTnW8gHEPvpBFWeHlknymjIAo48xArADI1wAPAI5rVoAFmWr7ArYCXClmFxAo+11Akrk0A9hLUQGg3DgRstsDfOTmVmDJ/q1AIrMPKD0RNgLRktWpgQBPdZeXYurZvxXgOOhIAyC5nW5NkcouL6VKZtems+uNcSsQKe6KQy5Udi2p2GtdAwF8/uyKQ1kKcivAfWkXUC3lfQD3pV1eqkGKAB9787wORPUE3xd5HeBGNvYlbs+o3Vc+9ccnsDIooN1X1fn4mMwI4PQek89C4cD2QjkYMgbai8QwlIFuqLoD9C/W7MWRWyigmFWqYr+hl9+K8lk2uMSAtdvkEeOSeE0WA1I2BHJA+lxxUulxX42CUGO2199qmMdaCA4Xj8ojfoJBT+AmpnpSQE8oqtU7KN8YSCIOEUrQBoxPsAWq4rak0a0sex2qtiJPHxbuONAy9yjganCy2iaJFLy0x5kqPOSgEGuZ7cR+J9Vcg3RoAA69Up12ycTVR4x510Q4rh15FvJsM6lOrXrwkqKuHXQsXAVQVy192lzmw0gJbTrL+ueB1aJNJwpiInaU0B5iH9Y+ARblEh/PVS4poE0rAZBMD+VGiTEBtIiZAUomzQAlxGaAknoTQIvJGaDk6gxQgngCaMk9A5SonwFqbJgAejCZAWr0mQFquJoBanybAHpAnAFqBJ0BasidAWqMbgCa7NWgPgOUIJ4B6rJhBqjrjAYAIaMvTBoADjl9JdMA0Iz1pU8D0D0Ue0n1VqTe9MVVOx8QoK7GJjeg7fLNSiCDA6Vd74lNOzi+tQtEsYcA99AmBZFLfIpOLkFFepfe2lavWcU9tIF7KHKgzAHmXqI0lk/GV6CRjJiu8C0uR3nccElQsDqpV6vrYb9qb/qJv9gvcm7FXoz0nwTjCuDUA5CCNmTHwmHllIFDjXxxwDoIb9hE6SBU+qaX7RKACruXks8cMCTb9O97OG+r9RcDpzzln5xhwrG9KBiWJzAhZIGFvsJtCTR5MTS35w8fb6Eej8/Pl5dYn/8v31rxV5c3Xv72Hw==);lineShape=1;" vertex="1" parent="1">
                    <mxGeometry x="274.1597356926818" y="436.33771267539964" width="334.7779413908779" height="10.693042126684986" as="geometry"/>
                </mxCell>
                <mxCell id="17" value="" style="shape=stencil(lVnbcls3DPwavWJAgtfnNP2PzMSpNXXtjOO2yd8XrIa0COiskjdZxookiMsueJIP3x4/fX04Rf729vry58O/589vjyf57RTj+fnx4fX8pp9O8vEkH768vD788fry9/Pny99fPw3L8emvl3/GL3y/4JgkDlDkH5cvWqFc///m94v90/n5yj5Qzbs9U5Rj+0idN/uaqfCxfSLZf78GyuHYvlAIm32p1MDvNwp1t08UwP4DUzIApooAeuJ9R7lSBScImdJ+5JwoFwBoxH0HBCpgBb3kugNSp9gBQOyhU6UMvDquwayg1wzOoPfQDSARt2OAhHmtCxApgzNIomLOwNTQCnU6cQKkQ7fq7+W0AxplEBpJKO/JJmW64TagUJIdkCkCt4573WNJhCq4OI2c3nZAhPk8YtMAVnTdBlTi/R6iujUBQCfZQ0ODBd1DCTMQFkCvEpyhyA1ARCtoijYLYLRCtfegGdIzADRq4gDxGFC17DYLqMCto44WCxBwhhqpGC9lamhLQqVZQAS9pCabQFr+K1pBN2C2JBig17Tn9HtDug3Q/pAsICK39tmeFiBAL41+2S0AnaEFCtkBwMW1SOwB4B4U0Is7A1pBqKVfArhiPLYEqoayEHYrJHSGSoEtgEHGKaCZLTFsWa1NJ14BAgJ0y5W0cyOu0dcGFiDDItBXqC2AwELWxdIl5TeIXvVko7XNunPbPtuyVCa7uW1frH2aLe+2fXXZQwmkZ+/Eu0uZGOS/2hv+yZCuqn2JZj+oV6m9qfO4pqq9Sc0OSUzgdb51w0qp0Y312ZiuorRhlxompmdGlFsB2fWFOyuIqana0FEU6S2bW2iwP/c2K+h1u0Vbao4BJMiIFSDGS0wdFDAFGAodCtQNA7BvSaVHwCvEvYBVHHttptZ7bsLy1Wz/xyVb7bvNTfj7fXLfd3vUmkfcJbOfO3FqCnyCRHVkzh5E6jCk227kZpxN6HCFfUehTnJ8mJuukyM5P+qXAaR5K0eAZOJaSzL2qmk5IzfxCsEnMwJUV5A61GHadEwRFqzpe7Z8R1WSoNDIlneqDhN0DzIb/ZXSE+TWOHXdAlQcS8FpeobSUNlI2s+g+hXVF+U7RmGopkcreEaVVGghKuw4m67QEe90rFABKDQ871RAQFvyYwbBAyjHnRVQEVF17HwAEO90/H9sCXQSrzAGAK3gNMwdgFdJ4wxIGjodpgABXvJKLy39+pNaMgWYQF6tjoESAjg9nNa09ScVt3TsJafppcP5kJ8aSINn8HMJBSBW4icfAwBKpZ+tjC0BLxWZjPzq0IjTl3BjsJfAGXJ3lY9h2x0zLhdLqJDlZLc0ppmApefowjtNzns4CTTBp46+M2s0ZaZCAT2mmaZqNKjpx7x0XyEz7KKyxnhXg26kDiXZpqh+Q9EqwcmxBPVkdEojZygcVFdEs0KF0/0otlSOcEQvLGwbigY80uhjCrFf3Egp9OaT7ZZKgSOr8QayB58WHqTHxhTCPPsILGReyuBxaZlKYVF1hjQ32Ul9y9NptwPJklwlQzCOrBJQAoiSjSeLX/YdMla2yXwlPg4AUuwCaNDAVosN0Q4cukZly34p6gN7U1GV5SM+zJa3Dc4OYtpJsTHpwvsx9hG+MbCtE8q/GVQitq8krcPB3JLKy15TAiQAz/8u+3rH/tfehe/b64f3R+gv56enyxv29f/to7V+dXnwlo//AQ==);lineShape=1;" vertex="1" parent="1">
                    <mxGeometry x="270.1489505600962" y="378.64506174182634" width="326.50869741865563" height="21.208573561624803" as="geometry"/>
                </mxCell>
                <mxCell id="18" value="" style="shape=stencil(lVnZchs5DPwavaIAEryes8l/pCrOWrVeO+U4198vuCqOBYymnbzJMlpD4uzGnPK7r/cfv9ydEn99eX765+7H+dPL/Sn/dUrp/Hh/93x+sU+n/P6U331+er77+/np2+Ony99fPk7L+enfp+/zF35ecExpTFDiX5cvBlPh/7/5cLF/OD9e2SfS7Ox7JpVje6Wqzr51yv3YvlJq3r5Qrcf29mvs7ROVdmwvTDUAmBgcSDKx91DtxAUACrXqAZU4AUCnmjxAoY+SUBUP2A55G6DLhxtA1iFvAxq17gFMCu6QmYZ3axnE4AlZiX1ilLZCeRvQSLyXSiEBXlKLq0+lkuETNFH3XipCGVxayyqVBdBBgorBMicAKg1wh8KUvZdUqYAjlRRzyW6FUqModX+kPKiDAiqVuq8Hi8wA9VA6DR+HXCDAcjMEzpJFwKUt+6V4gDUB9IRCyRfQa/7eBjRK3q1prBq8DRixa1inUuBW60IhDlaDBQTO+lz2XrLeWTMAZGoBUKgjgK4wbQBLFnDpVnaATBXdoe6OlKgpAFgB+cDZAEO51CwOfl7JoAQi3Tn2JWkwNbrESEulDNzaU8wl0dV4bgPyOvEGyDDSBghxENwEelkDagMwnEAG6N5Lgwq6Qo3jocMm0zvJCPaIZfRBzeeFDTDQMYaQ+vNYJoIgD+swYZbAah4WUT8/dfGs2/aWMn704FE1WvR/IkH2Y/XDZc9rEh3Z1x7sBcTX7LsEe5TSZj9CHa/CPrTvwT+IpQpznLRlRfA3H2BjDvSVae8rpq8IHjrI21tEQKObAQhdhRczPoxwjQCYomMRuiuAgK5igEC1x1snSrEmB6qBsVLsNQSIck57n9NKDZ8/9BRMmuf5g0ep4vuGgcywS8+IcbBn/PtBSjHUIWbf4nmQMpop2sN9C5gBswS8f9Iier9bk7q02OEDgvLCTdHsg9ZcNzq8sE+gLUMOHRqoAZaOM2IcAW/U5B8CWpyrIlAf2KBRX5RT3+JJFpxqbKWgtDa2EgAWNpSnsq64AWzYI/IxdlSZYeUbmwhLDit9pNN6i3zIxkcC7dr40NiR8YEBstMHqJq7xm5n2aqYBGbPfE3jKCKBJiiCKBIosI35RhUlUM0atw4S3nQaWkMYe98D0BOmPgg9PsMhYgokEBcDQNlVYlPKmIxPFbUDDHSkvFPkuibLkRIMZDZjsjO1ZkiNSgKy1dSsBECDfG3q5aDI+8rfQ0UeAJbe6Eg5FpAKbMZVYi5poor2FjvpqAr7UqmxVWrFAI0DSPsK5eF2x4/ownANYf8OqVHy0reHG6qwlitwoMwdmL9DaYunHG3Z9ptCpBWUl7S5Wl4ibj43hf5IlixoPsxdZCD/BR5pbot8aljCV+ClyUTCHTokw5Ma+SNZ0aIpOsmpP1ITKGnn1tl7yRoP0oRS4h2stSFCbMxCAh8zlY025xzX1NbPO3Craa6wJRCowmpk6DZV0dpC4xbciAHqxCnGYCTYxLaBvNkPuJHbVfMVpz4AhJE+HwDSjuNq6lWkHNiHCA+819mt5EeHc4RjCzb+ispmpzBGees8wV5h0XDkhcZ2UQLxegdylRCom+4IkpFj1Fc4bgYHQ9r5p2/73ra3D6+vFj+fHx4ubyav/x9fRdpXl9eY+f1/);lineShape=1;" vertex="1" parent="1">
                    <mxGeometry x="265.39135187023953" y="320.9714608458339" width="360.60750132118847" height="29.243180767857325" as="geometry"/>
                </mxCell>
                <mxCell id="19" value="" style="shape=stencil(rVnbbhs7DPwavxK6S3zu5T8KNG2M5iRFmt7+vlQNbazR7hgH6JvjaNYiOSSH3FN88+3+w9e7U3DfXp6fvtz9PH98uT/Ft6cQzo/3d8/nF/t0iu9O8c2np+e7z89P3x8/Xv7++qGf7J/+e/rRn/DrgnMSWwcF9/vyRSuS9O837y/nH86PV+eDlDCfjxLS8fkkIc/nveRwfL6Ij9P5qlLj8fkmUefzVQo5751onQF5uGAfEKXNFtQorhBAFQcmOKmeuNRJmn1amrhKAFF0vlLJ4ohTQ5VcZoCX5o4B0YufaZGbZAZIUucr5UzjFpsENwOCNEK85CXNNmTjLnFrSghIVRqjakWjUx5s3AfooNoGMBsIl7J5fY50cuObfUBEt0YVzwAZjY5VAnFrNrb6GZClMEAb9WEDJPGZAFR0NjoGySQOxs0IV7LYM0BYvOQo+cpSlQwQSE5bftXZrUEpl0qVmBCQCFst5RUAbVSqXYAVlewRkInRNYhbfoGVGatzeS6VVkcKscEqqcsIcIRL1XoN/EIZZWEfYBkMccgjafcBKmEmn3WkyPqJw5y2aksbUBjd4AoQSIpaw8TABdoSW8JyH7wUEjhr4RGuZPlA3Noq0ttbaSNubTqYswE4+dRhxlmbDIRL6iXMcfC8oegSB5/GI/YBUeJMDe+lkjio1bnZaKXKQfOovFvXHVJi/3wRB01XPHNRWQorlW5aB2s2WvDnK/ZDJ46wyM6nBOcz84+u90ksYIpKLA+eH51XjBcVbm6zb2NEpK2t/8LCas9CoCgAemaSVNZFYoStfBwBQBDfYpGi4jYADUMbGueqpLLWZgCMcxiZdATIEIetOx4BQEFbsWCtrQPmGtznAhbpRfVsuunQ5jkXIi2o3anAJCrbetRmF7nxxSEtCpxnY1vnHYSA31/HPLEpWwn8PMidSvNgLzf9rczRmabGCSbOuwnQ08wJvL7U+UrGazbo9QIJiZB4x1nVSx6P+EcAE1QgRqxJseyvOxqPlouCnf+G7LS2mRwCGnNrwnnhhta2zp/mktflPwMErJF9wGDlwmPr7xM1M9pmWYcAprVNgXkYkgKVzl3jKQKU0LsvguBKkVKj69RlMqSyM4458Hr2ZEYHVEjRLkni0NV8RgAzus8LAKhjoj6aSNQhQNmQVJb5udGNVZ+qYKTfLnk4tzUEsJG+T4az0clRGdNnz4AA9gt9uoVdjKcZ1+fnBVDZwG3TASxvwkipwx1AQYAyQBj9ZgPEm3uMmd7JJgjCpbwIVgM0BmiYQKnQcbhve5adGOtxOeOwmpRuSvrGaqZ39nQH0HdisNcL4xGHWzcYk7iXzERoiuYGJonN66A/s9I1nXETAIWTr28/58AZHdn2s1dSmCUr3696NPo1aY92xKD4Ki/3fQu9rN4dIV/fc8O7AEfzwS9stQbAJui+q5+v1DJlq2lI2H62ylcrqByscTu2acQRWjkxFinzKm72fYoS1ORWJFF2qECvhPUBAOpw19XEow6rqp1niyG3OKjROu9w7ulbDWowLD27HqX3d0sAmKZfxhITlywJ1ud7qi8ctuamdFB1KAtbu+EfDxlTx9b3KL7L+0K2CP+/7xdvn7cPry8zP50fHi7vQq//jy8/7avLi9P47g8=);lineShape=1;" vertex="1" parent="1">
                    <mxGeometry x="260.5853461164072" y="273.35799961795135" width="332.65561677599317" height="20.850447765297076" as="geometry"/>
                </mxCell>
                <mxCell id="22" value="&lt;span style=&quot;font-size: 38px;&quot;&gt;Main()&lt;/span&gt;" style="text;html=1;align=center;verticalAlign=middle;resizable=0;points=[];autosize=1;strokeColor=none;fillColor=none;" vertex="1" parent="1">
                    <mxGeometry x="360" y="442.47" width="130" height="60" as="geometry"/>
                </mxCell>
                <mxCell id="23" value="&lt;span style=&quot;font-size: 38px;&quot;&gt;print1()&lt;/span&gt;" style="text;html=1;align=center;verticalAlign=middle;resizable=0;points=[];autosize=1;strokeColor=none;fillColor=none;" vertex="1" parent="1">
                    <mxGeometry x="357.93" y="382.47" width="140" height="60" as="geometry"/>
                </mxCell>
                <mxCell id="24" value="&lt;span style=&quot;font-size: 38px;&quot;&gt;print2()&lt;/span&gt;" style="text;html=1;align=center;verticalAlign=middle;resizable=0;points=[];autosize=1;strokeColor=none;fillColor=none;" vertex="1" parent="1">
                    <mxGeometry x="371.55" y="330" width="140" height="60" as="geometry"/>
                </mxCell>
                <mxCell id="25" value="&lt;span style=&quot;font-size: 38px;&quot;&gt;print3()&lt;/span&gt;" style="text;html=1;align=center;verticalAlign=middle;resizable=0;points=[];autosize=1;strokeColor=none;fillColor=none;" vertex="1" parent="1">
                    <mxGeometry x="375.7" y="276.79" width="140" height="60" as="geometry"/>
                </mxCell>
                <mxCell id="26" value="" style="shape=stencil(lVnZUhwxDPyafVXZls9nQv6DKiBshQAF5Pr7yLXl2ZU8bsLbHu6xLbWklubAV28PNy93h+De3l+fv9/9Pt6+Pxz4yyGE49PD3evxXT4d+PrAV/fPr3ffXp9/Pt2evr/c9JX904/nX/0Jf0447yj6jgru7+mXFimcfvl6Ajweny4BjZwBMJW0BgR5XrOA/nUJaFSrBgQqAMCJarQAX9eA6KmYHTxlcOlYKCULcG0NSHJFpwEO7pAqxWIBDpg1M7H2Q20U8xpQPAW9Q63kCwBkKtqsNVOOa0D1lPSlK1MCfqiRmr5DqdBxtZDTO5QwHrEPqFQ0IGdicGkxYtGeTtis4iavuZQCVbxDDQrQ2QXo3e+QNUDMivyQyWuzcsNWEjLrO3CmBAAlUtYxzQwdV5ylN3vyIIByGswZAEkLHgWQmFUfKWSYNSREq6ZGz1TArOKmqOMhSB5hmGacBkjyZJzIvCafLxQA+Xqq1J72YjdwpJCmI8URUvvpvlBlDfDDbvuAYGNaSkxBXCKnN6iQepIyNC8ipIUEr2aFIwY8FfOVYNYncFthQDacoAye3zlpssWIpH1GOGvNSg1wVMIwalKLP/IHDDKUw1UhMLliASijdgrrK3ucgv1UnT2P7LFgEBuKuiEI9q8wLrgVEUrg8eICTYk8xMBiuXl6GvpnsdzIKR7bLZZH7a5ACTzd25QlP6D0YHOosB+QR6oAm+UOkD/PsejAYarVKw6evU2sgSqzc8QUGGJAGr9Z7uyoDGgg61nfVlIvPo+p8nkIvMV1s5FOY7+FMU3elygHxsyjEp6XowiM9q44JWw58nz2Cg7jbQORPwgRzsbwqEo7KykjrBDOWoaxW8npw0hyA24K9uxuFPiF3Z0NQCSq0hCmFwEIilux2lnuDhi/aZvzcuSmTy6XomFSWYIiuFvO6gp02W6cSbdE5KqJln5Ln/8rpRwuhMEme9wodPGi10dcyv3IeBeRgtbXqb8jBiY99wRbT0sNra9WTEkSReooTm2IKAWo+f0kFRLUU6lYudnlEepb4nDpVla2CcuqM7KAAItuSVOjI2YAl5YuOxmNWqGC6aMKU+rCKB/7gDiS2gZIMHZasRMb6VCRp1uzVhLfR9SGuDmvC/tQIz+NnVKGulAApkXNbvRvK4DXds0Me6lWBxM2QBmuWdnVjGzOU599QLaek9Ye1WJxtRkVVI91ituZIqEyIn+7aRKGdqiT4m5hRO1+BPE4wMXME3XNEtTJ7JDgJCw1G3JiaI8Acbp0hkEdq60N4nskRGKwxUEAEfiBp/GfABrgkvSqJhu3CneQcuOjBSC545vVyD2kQEz7rQc4l1yseaQkm65DtmgoMxEnux7doY4SfrEeN7dmWig2Qucp07S9wvqTh08vvIzG+Xkazhc4py7T64I8NO6qmTcuTh+Mj8yApCUYaZPGkNhHE5tpgNQiFm2ffqHyMUA+nN/f3B8fH0+vfy7/t+975KfTuyK+/gc=);lineShape=1;fontSize=38;" vertex="1" parent="1">
                    <mxGeometry x="605.1609930156715" y="401.84566223567253" width="52.141867728500074" height="70.59788272818446" as="geometry"/>
                </mxCell>
                <mxCell id="27" value="" style="shape=stencil(lVbLbuMwDPwaXwlJpF7ntvsfBZpujKZJkWZff7/0GvaGjDtFb47CkUjNDKmB7973j2+7IYX3y/n0svs1Pl32A98PKY3H/e48XvRr4IeB755P59338+nH8Wn+/fY4RU5fr6ef0w6/Z1yhHCdQCn/mBQ6U+N/Ktzn+MB6v4mOlwAYQhSR/DOBCEgwgUAgfx2fxGaVlYTO+BhKxCekBIKFWqVcL6NRBRj1RzDYjplQAIFPN/lIFARpxNwAJyxbbgE4tGUBmWPQEKAZQCoUKU8r2hNogz1p0tzy0Rq3Da3VF90IMmNb9kpWeVtURgKknD2ABWupLxitAqCCA2sdqqeEaqhBbN9RMKQEAE9uii/oBGFQB1TItfUlyG5CX/Va1VqrAD5MQbNGpUQTybomSA8RFLNuA4lNSi1ZwrT1QC/6EgsS38roCKpUGANUD9JYCqEGlJs7T6gdQQwxrY1ypjlTxEdG2SpWXoCKKN0TLkOrOVKyY9OLQeGj9BqBJAvVpAuzbNx4QEyJ/CZEbVSsn7QwBVCGy3Pu1SwF3Oka7zUlNgk6IhZIFaDsUwHVkrz9tuKjj6xTswQOQh9TDzVPNwNWZiqsgUgQs8DICr1olilftuwGk2gJKCpQdBQkq79ZtAg0dKLqRm+GMDn6WiLZV0JJumqS+AQqYDOL5YlkY2Yz/6kvv83j9+P+sfB4Ph/lVev2/f4bq0vyE5Ye/);lineShape=1;fontSize=38;" vertex="1" parent="1">
                    <mxGeometry x="605.3794232228697" y="396.82806535318423" width="19.514560534881184" height="6.475519706465548" as="geometry"/>
                </mxCell>
                <mxCell id="28" value="" style="shape=stencil(7VnJUlsxEPwaX6e0z+hMyH9QBQRXCKYM2f4+ozh6PI38uvAtB27GqC2pp2fVLl69PNw83+2Ce3k9Hr7e/dzfvj7s4qddCPunh7vj/lU/7eL1Ll7dH453X46H70+3p7+fb9rK9unb4Uf7hV8nHBequaGC+336pmZK7u83n0+Ax/3TCiCOAo8AT5IAIFH0A0AKBnA/wALwVAUAKqXxDnorX7cB1VFMA6AsP7EFCHUEZMoRHonLCPCU0R2EeGQpM+UAWTJ2yJEK2kHtOh4pO3Lg0hItralQAbSykIxHSp4cAkSqo6VjoQwAaiY3shQDCWCpJMojIFSqaAe1dBgBDNWaldZRS0HFx9uAVKkYQCIBhlMSjeGCWhqIT0lMo1pDoIoAukOwgAiCgF7RXtp3/Z4FeKZi7OBIwA7eTUdy5AEgW7F65RmYoXYjLeuZPODIZwpmA6GMONIbxIkjoFWVQTWkZnIFAvJ4JP0mIUCmyHaHAEKA/vufMtfiRoDST7xyHw+EoTtUIwwhB+zWDB0tAGUH5cT6mwZnBIg9Bi1BZjHleYA6S7YAAUFGpVHNDh6Lr/bksQaAqKTaDN4eqQLxea0DynRpwJL6g1RLqwBpeG+TbpMGUCv3/VfqRtpLk7g1+yB/ozCeRyNARBQRj8nKx14VbPy+UXbthdBGACsmnxMjOl3Pxct1SVAEVnuNfuN7ptvyAh7Pg+NvCxXOrHfIabhf7209qjuVvWTP74E+Vb7FRCJoLXUoU6bGnrLeuV6DNTj/fJ5CEfEz3Zd7zn0nn4LtO9lLYOk160FgfarmMfFBID9hqskZ6k1DYnSG/4rWa3E68q/ZE0VQLTVNyIXRStdXq0+YA3wPNm/6R1Vg296uD0g/eV4P+ecLf19seMPnV/0bf8H8tARXLuC/+eNoL2zflg9HvWH9tL5h1BvWp/ITrT9C/rWkvsi/Llzf4r8peB3sSDW7WUCCxaLuYIoUTaiMXaZMGRtl4I+C9/8peKdi8aPgtQAtSA1AcJPsJrWWPu/YKBnjNBhwiKTO+aqnRg3mkjEWh869Kz8/PLGU+tCHVFstgc2ZoQedLVmYpKBRCo2klHELUO8AV4ixy2x1Z5h3linACoDa/BRtX+NxJZgDZXMHhpO+4mzqeXOn84BypnWqQNrs7bRFgw4Dw3GhMrLU8iOgVXzP3qtJHxq3SLFaipp90JhZs48Zb+KIUYMdPqYEO7qarPiSQH+uy9h6qUlCr0LPA9g2dbn0Mvo8oFp5q1jQaFABYgAaA2AQm6JGqbAz1S1MJ9vmwuhMYiMxY4dQXk1ykITn/Rq3Rh9VtVT8ZmFSaM3QcpLsOFFvhYa6Em1GbLYEoU9Cl/8KgDpadTnT4TXjox0csQnfDjcZPJm6Yl5Z7NBFAYx24P4esAIgJ+WljF8ZgtGjRZlMLXiOVWynqm6bcLC0T2wFzoJ4GvgrAD3tXPzq9w6Afnh7ZLzfPz6e3ijX/7ePkvrV6UEzXv8B);lineShape=1;fontSize=38;" vertex="1" parent="1">
                    <mxGeometry x="604.8838169546934" y="348.58540746480026" width="50.021642097254016" height="72.78592379991517" as="geometry"/>
                </mxCell>
                <mxCell id="29" value="" style="shape=stencil(7Vnbbls3EPwavS5ILm/7nKb/ESBOLdS1A8fp5e+7rMBjcc7RCHkN+ibLHJHcnZ0dkif98O3x09eHUwrf3l5ffn/46/z57fGkv5xSOj8/Prye3/zTST+e9MOXl9eH315fvj9/vvz99dMYOT798fLn+IW/L7iSJfSBSuGfyzemYvG/b369AJ7Oz9cAEwNAlm63AbVKiQgIBNCylLYCglQlgC4tL4De6JJ6klpWQJbcCKBKTCsgiDJAF1uX1Ir0cBtgUdI6QwvSEwEkabYAahFjAMU81G3Om4B1SaVKznRJts5Q4r1N9zVKuUkkiXMi6Jq47GEoNA/AJe1SO810qSugSCB7cOYozBClkQJy8qV106lLJwCntwLA56y0gNIapRSlEkDt898TEE0CyfRgzrrpWCWQGUpDmYlblR8DkpR101ElkEznLnElX/RNEy7lsFM+qaQc1Nm97tlnJKqUqpiuFS1K1uM56g3GR0ILj7iFtZ7FyO/HJLHC7wey34o678shCYthasNWmlNkj8dvZfUezkTGp4Dh9A0VHn8Fyrl8EY563QYgtdHC1CxtBSTnCJuh4Z49SEbUyAEVAIXqnQNs1WwPQ2V7aNioPM+Z0GgsaaWRJ075kqAwvdAiERf1xAUE0DwUSWum1fsEoYYnLioCGFm99rshoLHERYzSmIGF1ctnvwcmFya5YJSMNCpPE3LJeMVtVLviUiabdgUzoEaaqTzWgIYz+DfMVnnJt5XeLjvMYThAV4CLPJ8AVKxPE3Q8XrGJtJmW4/F5iui7aBcSUlfJiiLP3IjHL4EFozyNbj0UxhsT1YC1yS2hUyJj00lEIZ0wCbsCY5CPz+v6jcbfx8cdgQrvykCgYSuIGHmE0IckWshxV5cO6IxDFY2IA4y3WuyEiVeBTidxBWDmKyasfI9S5AA1zAMzkAOAhcnUbsRwzVvjhaDYy+s8m9y0L3D8mvbqVtKgIRTa02LHQit8PYZHqTqPGbd4DYVQqXXxwgkR4mns9390vOsIVIFSZRwNGAB9luqtpg9VMMSGO52fwq2BRf3frf2cbs31befLM5tBUTGc3o15Hd8DsDXeM0d9Z+8qWVKbFX+lAcwOJjQXRhUgYD3neSN2fAWBdxyBHoB396KBO7U8fcfVeMaggIIauJMq80bzfTzr+ePWClzFTPfxeKfjWpXctYybvQ7RZw2txN115TyeH4+v6By5MtaALsqoxalFCpCZB7TpzM8VmztRobbp5vVpiF09FqTEyBmJae+7kq/0DsUCVvA4PxHWmc57w00YvYRJkVmZl1AboNEitjqlfONRnE7gGNBnl98AlZ4RzNCbOhepgw87ZSl3pwDyVd8ES4RNO70BKr/tb0jXlvjVesEwtUZvyi3NxG6OPNGXI2cfKFJv8+HmGKBoj8aDAbv47tj4fVfMlXuNVjg+NvrUVDterRvvOXVXEFdsORayjg8KPgVzkWXfBjt9gXA6gyl0QGFLCrs3v057oQPAKnhcGb8dEHaARJaUDc93Lgwsc3mnrg4Id5YEgEKLugTUDcu0RkdYMwLYBdtInCKAmfNBDdiD8iXpjt9K2/qPvx/fB/iH9+fqL+enp8tr9/X/8Xnbv7o8jevHfwE=);lineShape=1;fontSize=38;" vertex="1" parent="1">
                    <mxGeometry x="619.5714108605639" y="298.8362648719499" width="55.62178556782078" height="78.45641228316924" as="geometry"/>
                </mxCell>
                <mxCell id="30" value="" style="shape=stencil(lVbLctswDPwaXTEEwOc5Tf8jM3FqT1074zh9/H2hauQKlLyZ3GQa4BLA7pKDPrztn153g4S36+X8fffr8HzdD/plEDmc9rvL4Wpfgz4O+vByvuy+Xc7vp+fp9+vTGDl+/Tj/HHf4PeUxcRqTJPyZFqqSxH8rX6f44+G0iA8UgovPmWq7Hx8piovXAvfnQqm4BK6U9H6CClWPwIG4gBM1kuwSCoV0P94KTB4gUpH78dbA6PcP8wbb8YVq7eIZdKgJsbp4mWe4HZ+oND8yUtDQVil6SrCQIIBGtUuwFgNOjAldBZlKwEdizyKFMxhr7mjXKCMEmTlwG7IhgCnY1IqfWkywBqOF5j5BAE/LiqdRKAGEkqh5bZrWcgUJStnPQZkUtLXIXOJtcJECqkGJPfcYT9pqCL7oRg2VUIl7cWYkNpuzL5mhWdRM0Vd8M8BtHgUqudtfkNjsuKU7PyR26Scwuh0CaJRiP4EKKuawsng7E7JsgwgrGkUA0fIsrQVRK4OEtXZMCsBhaptPvBCbAoRPJ2Sl4PWfAkXQJfs7xz6hgC7pGsHUBLhn90D0CHZINGoxBG+rNcwr9xCaV1uNsGhLEM+lWqH+TV6dh5kzpwzo2voujd4PHGOkv3d6u10YJUTSLsHuEtAl5v7yWWhqm9/zXBcIyIcz5c4kCzxR7D3AbAe5qqxaxPOrbLvi3pRq+SD+c4/Oj+Pt4/8L9+VwPE4P5OX//YvYlqbXtD7+BQ==);lineShape=1;fontSize=38;" vertex="1" parent="1">
                    <mxGeometry x="623.5642847088329" y="290.1766342865461" width="20.1687801693879" height="12.034905569164493" as="geometry"/>
                </mxCell>
                <mxCell id="31" value="" style="shape=stencil(7VnLbhw3EPyavRJsvpo8O85/CLAcLSJLhizH9t+76DVHy+ZMCTaQU3Jbjbpm2N3VT57im093Nx9vT8F/en56/Pv2y/nd890p/nEK4fxwd/t0fsavU3x7im/ePz7d/vX0+Pnh3eXvjzddsv/68PhPf8PXCy5EV2JHBf/t8sQ7aT8e/HmRvz8/XMlH75oa+RaP5ZN32ib5MF6wL19ckEk+O81EXl32k7y6SM4P+Rom+eaCp/Jxlhf/mgJ+NpAEp0IAaQEkl5hJxfk6A/BN5jPYKM0AHV7fB8RF6eakHANCdTrrAFpkonSADrPbwAt2JMnjfRsgukaIIdFVc6REPS0y3ncFiMTTzdVFPhEjqVO/yBMNsithOQ+Rj06jladOc5IWixID+cU+0eXK5EOw8j+fHMivlKiJycdFntlTnCzyQvQNw9qbvDgl+jZXlhioRL6rtwYNAUSxYYkTMYYi8FNYTMqyo7i0cLSyXATKmPSuwy37gGx1iJ4DipPZDchOVIcysucGUNcIj3CkNgdCApFYiodNZiv1KkEiDVYyfsiBA8Tm06w89ttw0wCUMOx2RA2di0gpg7/7gGzTl6K0E7N2N80ZWxP1dNzCdwOoC6yuiQ0gbSNnHgHybKUqNGUDYLqjGmn1h9I6K13LqNZHjjNZstbRDxzSe2Zrba4RpTPoPXu6BecJoMDqs9ItUR20jjqzAfKoRfuZUkZ8bYAyiuk+AKW7WACr/vi3zlZqSqt/q9bTALBk3NroSzcAHMeO1GznDEAm5AMgGMc1/gVdlG4uMR3QVAULqMxKW0W+ArB4aEtR7wAS01V3lGYVqKbFrG20u/uApbkFQEg8VOSluca9kOUIkBdPCwPEQYQr8hXi6Zptb9LpzQC6sLWMtHDkOEsNhChja1yOVGg7CfK1RWnWj/X4qhaQiKc7+9UCWOsgfqVrpeMkPlHEAtgn+vuWCGKVHVZc6crmSThCiwWwER2uNv3PlR0OEfmXEKgpecmWLOhQtaIJusIH9aWQgmCsaqEps2UOtZ0YFrXdljmhJQITnGn7Kvf1y8CwAXQ05PuEhdIzwyuvvADEpaFhfA3LvgctU2STfRiJ6KopS+wLywYKbR+dW+HXpbGkgGL7dbSuhU1+1Y7SaI5ZTYnb4HbVfnsGWKyEBj+wTjTafIwRgjbHyQZQ4pMZAGYz9soY1L8w542IDM3WSsFONXgFy/gwq8xmxRM2pGD4NMMinrD+pK9IzBIkU8Bv7aFmHf7fQ/0H9lBE3397D1VsOe9lhTE02YlSKl2Y9PPOHpbCU7za7USPCuIChLnOPhP/GsCQQqmNkOFNVGYaY6CMn7NppOm6b+RNENBJDD4ohhRjDjrKKslkFZp6+x2E8QBd3kDeLAJl9DKH8s3IM07j/KaGb/dER/LNXlNldp48brFe5Fm1hL8M4TxtTxEhyZ6H7VTWJMT7ZZiv2fN7lkN/8RrvdXn8eLkzfH++v79cOV7/394x4tHlfjK+/Q4=);lineShape=1;fontSize=38;" vertex="1" parent="1">
                    <mxGeometry x="237.01084361065796" y="287.4279388453566" width="29.19435384090957" height="163.11604187212697" as="geometry"/>
                </mxCell>
                <mxCell id="32" value="" style="shape=stencil(7VrLcls3DP0abTkkwRfWafofmYlTe+raGcfp4+8L1kNZPJDOney6yE6WcXQBEDh48J7kw7f7T1/vTjl+e315/v3ur4fPr/cn+eWU88PT/d3Lw6t9OsnHk3z48vxy99vL8/enz29/f/00JeenP57/nL/w9xuu9JDaROX4z9s3qkHjf9/8+gZ4fHi6BJQgeQeM0AcBxDD6DuhB5DZARkhjB7SQCgGUoHUHlNAYIIWkOyCHQYzO3RkdQyc2ZAmyGz1GKESlpKHsNowatBNADT3uAKFuTTnk3YYRQyVPUIyM3kOrt+VbqLtC3U6BRVKQsssn6qIcWtrkmwUK0SfhmTXThzgo4gk0i1yiTwxxt7e2I3nZ5c2izOTb7v9i9rKICGPXv0goJDEl1P33LfF6uy1fwwD5EiKxd4Sx+98iqhJ7LUDL7lB7pLADbivLz4AUKsvKhCGazKWJABommaVdZtyVMejMqkFsMJ/n/dRSPOLfshut65HXT82ICoiFmlx7iDv7nivE9ayXkPewaDSLmyL3Gs8R/Y1Eegb5ShzadZHUuzzzj7GmQhovBa/LWylA+cjkdVWWc1oGJRGkRoIK8qzSWCFq+3lJGEyfEWQ/r0z1MXtjAvlC4tPKFpxXonXM/O/kD84LWCKtDLolnwTkWTMxzu54l4/MXsvv3T+8aph87yDfCEvP388gX0n+Tv0ryAvJ3+mfBvL5wP8C8oxP5vmiPrRqlJAiyjP/Gx+i/gfyw/0+08foAP2fmH/aorN3edYeWz4Cf1o8M33U50sj+W584vKdVbDZCSvIU/451+h3/ilMn46dcaHxZtMFjA91Bch1eeefRvk5RdfH9ZBJQM8H7Ak/aJdiBgCh62pkbzpoJ3TrCOiJ1RVgF4DBniCO4hIdHSyGhgMMVjQUe8s5ffCqmiMCOqOVsqrKGSCrcbnJow4gTCXXOBmAZVofIUJmltXyXwf0NX9dAlhv010ts6NkKrXV0V8ABvGSAcpAADsHA4hTiXX5E5DdOfAnFGcDqzjTaFDJaiKh1OlWF3yD2dDXmHEZraTIGkCHA5CuyGIJu5xM2woDYLRm2ncZQNW5lTfW0QFYZzEBLoEqAziqn8HHAUgzlg8sNM4T9GXGMUB31fYwRbN/As8HbzQdiNoVo2ksNewA5jlwEpCEADlgjYgAtqowQAO35iMiU1dQ2FzdfRU9yLgfBqironmtF25VIKwPeW06b9U4GL1m2WWzVFvEeAFgzdhsPhUBrBu2aRNDI9KctnYyFQSwBNKCJUtpKGnFRmCsAeW6vKtwfKtp8hXWjrS+zW4M9w9sC2r2QjpXOr9oxh1WoZ2Vul238Bhy+xOe+xZCsNbMtMOwGC0Z5GkbVldAXuwT+Lz5cz/wcz/w/90P1FAwHti4OfeNCvJ0X2eNIFA658OIt22Z80/C/XOm+1jjq7b7k3fvNpw6ebrfKKtrvdivMn521ySVjuPGh4r76s7Ot+P5VjpL+CJf6fl2t09uIbIe2V2OtpAJnzTF+tj4rZ9gveh0jKgd611f90rX5d3+6hzgV+VLdXe7dA4SdSNBom2cCCZkEroRNwMVeqZKZ+rsKD0NfnM2cNLKvFFMgkPHzAL2hIiXtebWzuZRzAIpa8Nz/ZixCsugbYSrMkXoZXbGa7YyaBlLOKAcXNZazABLNP5GAc4CLdJR121lW6Fl3rFi6zQNKrJiT7QsuYVGL/TaZo4JuwG9c4CrAyPSi7nUsRGdrQ55wlzM7zFttZmlmTkVgmJwpxpVVbirjXS5P6+P4dWXTNla3MSnha7HRd2bLJUmTsm4HreJiGW+ETBeUA96g2yZiCrpuhO5BYCWzgDCVBq4aDVAISdtgCYIYKFxFcD4YqqkCGB9RfHXCEq3/GXgxcwEsMrp37vS1TtcBzgSUKVbHAPgOjrybtwQ1Rlx8AgoVBPAgumHX4A7BtiH9/ftvjw8Pr69rnf5f3w/z756e7dPPv4L);lineShape=1;fontSize=38;" vertex="1" parent="1">
                    <mxGeometry x="125.9669182369787" y="49.464406069302186" width="157.59190540305326" height="339.1501011032352" as="geometry"/>
                </mxCell>
                <mxCell id="34" value="&lt;span style=&quot;font-size: 32px;&quot;&gt;&lt;font color=&quot;#ff0000&quot;&gt;All Functions will occupy the stack memory unless &lt;br&gt;depending fucntions do not return the values&amp;nbsp;&lt;/font&gt;&lt;/span&gt;" style="text;html=1;align=center;verticalAlign=middle;resizable=0;points=[];autosize=1;strokeColor=default;fillColor=none;fontSize=38;" vertex="1" parent="1">
                    <mxGeometry x="320" width="730" height="100" as="geometry"/>
                </mxCell>
            </root>
        </mxGraphModel>
    </diagram>
</mxfile>